<?xml version="1.0" encoding="utf-8"?>
<!-- Generator: Adobe Illustrator 24.1.1, SVG Export Plug-In . SVG Version: 6.00 Build 0)  -->
<svg version="1.1" id="Layer_1" xmlns="http://www.w3.org/2000/svg" xmlns:xlink="http://www.w3.org/1999/xlink" x="0px" y="0px"
	 viewBox="0 0 512 512" fill="#e11d48" style="enable-background:new 0 0 512 512;" xml:space="preserve">
<g>
	<path d="M256,0c70.6,0,131,25,181,75s75,110.3,75,181s-25,131-75,181s-110.3,75-181,75s-131-25-181-75S0,326.6,0,256S25,125,75,75
		S185.4,0,256,0 M277.4,463.2c49.2-5.6,91.3-25.8,126.2-60.7s54.8-77,59.5-126.2H348.9v-41.7h114.3c-4.8-49.2-24.6-91.3-59.5-126.2
		s-77-55.2-126.2-60.7v115.5h-41.7V47.6c-49.2,5.6-91.5,25.8-126.8,60.7s-55.4,77-60.1,126.2h115.5v41.7H48.8
		c4.8,49.2,24.8,91.3,60.1,126.2s77.6,55.2,126.8,60.7V347.7h41.7V463.2"/>
</g>
</svg>
